<mxfile host="app.diagrams.net" agent="Mozilla/5.0 (Windows NT 10.0; Win64; x64) AppleWebKit/537.36 (KHTML, like Gecko) Chrome/128.0.0.0 Safari/537.36" version="24.7.7">
  <diagram id="Ht1M8jgEwFfnCIfOTk4-" name="Page-1">
    <mxGraphModel dx="1558" dy="1553" grid="1" gridSize="10" guides="1" tooltips="1" connect="1" arrows="1" fold="1" page="1" pageScale="1" pageWidth="1169" pageHeight="827" math="0" shadow="0">
      <root>
        <mxCell id="0" />
        <mxCell id="1" parent="0" />
        <mxCell id="UEzPUAAOIrF-is8g5C7q-172" style="edgeStyle=orthogonalEdgeStyle;rounded=0;orthogonalLoop=1;jettySize=auto;html=1;startArrow=none;startFill=0;endArrow=open;endFill=0;strokeColor=#808080;strokeWidth=2;" parent="1" source="UEzPUAAOIrF-is8g5C7q-156" target="UEzPUAAOIrF-is8g5C7q-158" edge="1">
          <mxGeometry relative="1" as="geometry">
            <Array as="points">
              <mxPoint x="230.5" y="-459" />
              <mxPoint x="230.5" y="-402" />
            </Array>
          </mxGeometry>
        </mxCell>
        <mxCell id="UEzPUAAOIrF-is8g5C7q-173" style="edgeStyle=orthogonalEdgeStyle;rounded=0;orthogonalLoop=1;jettySize=auto;html=1;startArrow=none;startFill=0;endArrow=open;endFill=0;strokeColor=#808080;strokeWidth=2;" parent="1" source="UEzPUAAOIrF-is8g5C7q-157" target="UEzPUAAOIrF-is8g5C7q-158" edge="1">
          <mxGeometry relative="1" as="geometry">
            <Array as="points">
              <mxPoint x="230.5" y="-351" />
              <mxPoint x="230.5" y="-402" />
            </Array>
          </mxGeometry>
        </mxCell>
        <mxCell id="UEzPUAAOIrF-is8g5C7q-154" value="AWS Cloud" style="points=[[0,0],[0.25,0],[0.5,0],[0.75,0],[1,0],[1,0.25],[1,0.5],[1,0.75],[1,1],[0.75,1],[0.5,1],[0.25,1],[0,1],[0,0.75],[0,0.5],[0,0.25]];outlineConnect=0;gradientColor=none;html=1;whiteSpace=wrap;fontSize=12;fontStyle=0;shape=mxgraph.aws4.group;grIcon=mxgraph.aws4.group_aws_cloud_alt;strokeColor=#232F3E;fillColor=none;verticalAlign=top;align=left;spacingLeft=30;fontColor=#232F3E;dashed=0;labelBackgroundColor=#ffffff;container=1;pointerEvents=0;collapsible=0;recursiveResize=0;" parent="1" vertex="1">
          <mxGeometry x="200" y="-700" width="916" height="600" as="geometry" />
        </mxCell>
        <mxCell id="dOL3RdpPMTuehhcjLxyu-23" value="VPC" style="sketch=0;outlineConnect=0;gradientColor=none;html=1;whiteSpace=wrap;fontSize=12;fontStyle=0;shape=mxgraph.aws4.group;grIcon=mxgraph.aws4.group_vpc;strokeColor=#879196;fillColor=none;verticalAlign=top;align=left;spacingLeft=30;fontColor=#879196;dashed=0;" vertex="1" parent="UEzPUAAOIrF-is8g5C7q-154">
          <mxGeometry x="510" y="200" width="400" height="210" as="geometry" />
        </mxCell>
        <mxCell id="dOL3RdpPMTuehhcjLxyu-24" value="Subnet" style="sketch=0;outlineConnect=0;gradientColor=none;html=1;whiteSpace=wrap;fontSize=12;fontStyle=0;shape=mxgraph.aws4.group;grIcon=mxgraph.aws4.group_subnet;strokeColor=#879196;fillColor=none;verticalAlign=top;align=left;spacingLeft=30;fontColor=#879196;dashed=0;" vertex="1" parent="UEzPUAAOIrF-is8g5C7q-154">
          <mxGeometry x="520" y="230" width="380" height="170" as="geometry" />
        </mxCell>
        <mxCell id="dOL3RdpPMTuehhcjLxyu-1" value="" style="sketch=0;points=[[0,0,0],[0.25,0,0],[0.5,0,0],[0.75,0,0],[1,0,0],[0,1,0],[0.25,1,0],[0.5,1,0],[0.75,1,0],[1,1,0],[0,0.25,0],[0,0.5,0],[0,0.75,0],[1,0.25,0],[1,0.5,0],[1,0.75,0]];outlineConnect=0;fontColor=#232F3E;fillColor=#8C4FFF;strokeColor=#ffffff;dashed=0;verticalLabelPosition=bottom;verticalAlign=top;align=center;html=1;fontSize=12;fontStyle=0;aspect=fixed;shape=mxgraph.aws4.resourceIcon;resIcon=mxgraph.aws4.glue;" vertex="1" parent="UEzPUAAOIrF-is8g5C7q-154">
          <mxGeometry x="240" y="264" width="78" height="78" as="geometry" />
        </mxCell>
        <mxCell id="dOL3RdpPMTuehhcjLxyu-6" value="Amazon S3&lt;br&gt;Analytics" style="outlineConnect=0;fontColor=#232F3E;gradientColor=none;fillColor=#277116;strokeColor=none;dashed=0;verticalLabelPosition=bottom;verticalAlign=top;align=center;html=1;fontSize=12;fontStyle=0;aspect=fixed;pointerEvents=1;shape=mxgraph.aws4.bucket_with_objects;labelBackgroundColor=#ffffff;" vertex="1" parent="UEzPUAAOIrF-is8g5C7q-154">
          <mxGeometry x="385" y="265" width="75" height="78" as="geometry" />
        </mxCell>
        <mxCell id="dOL3RdpPMTuehhcjLxyu-8" style="edgeStyle=orthogonalEdgeStyle;rounded=0;orthogonalLoop=1;jettySize=auto;html=1;startArrow=none;startFill=0;endArrow=open;endFill=0;strokeColor=#808080;strokeWidth=2;exitX=1;exitY=0.5;exitDx=0;exitDy=0;exitPerimeter=0;" edge="1" parent="UEzPUAAOIrF-is8g5C7q-154" source="dOL3RdpPMTuehhcjLxyu-1" target="dOL3RdpPMTuehhcjLxyu-6">
          <mxGeometry relative="1" as="geometry">
            <Array as="points" />
            <mxPoint x="330" y="314" as="sourcePoint" />
            <mxPoint x="406" y="314" as="targetPoint" />
          </mxGeometry>
        </mxCell>
        <mxCell id="dOL3RdpPMTuehhcjLxyu-9" value="Redshift" style="outlineConnect=0;dashed=0;verticalLabelPosition=bottom;verticalAlign=top;align=center;html=1;shape=mxgraph.aws3.redshift;fillColor=#2E73B8;gradientColor=none;" vertex="1" parent="UEzPUAAOIrF-is8g5C7q-154">
          <mxGeometry x="810" y="266.5" width="67.5" height="75" as="geometry" />
        </mxCell>
        <mxCell id="dOL3RdpPMTuehhcjLxyu-10" value="EC2" style="outlineConnect=0;dashed=0;verticalLabelPosition=bottom;verticalAlign=top;align=center;html=1;shape=mxgraph.aws3.ec2;fillColor=#F58534;gradientColor=none;" vertex="1" parent="UEzPUAAOIrF-is8g5C7q-154">
          <mxGeometry x="560" y="256.5" width="76.5" height="93" as="geometry" />
        </mxCell>
        <mxCell id="dOL3RdpPMTuehhcjLxyu-11" value="" style="aspect=fixed;sketch=0;html=1;dashed=0;whitespace=wrap;verticalLabelPosition=bottom;verticalAlign=top;fillColor=#2875E2;strokeColor=#ffffff;points=[[0.005,0.63,0],[0.1,0.2,0],[0.9,0.2,0],[0.5,0,0],[0.995,0.63,0],[0.72,0.99,0],[0.5,1,0],[0.28,0.99,0]];shape=mxgraph.kubernetes.icon2;kubernetesLabel=1;prIcon=api" vertex="1" parent="UEzPUAAOIrF-is8g5C7q-154">
          <mxGeometry x="690" y="277" width="50" height="48" as="geometry" />
        </mxCell>
        <mxCell id="dOL3RdpPMTuehhcjLxyu-12" style="edgeStyle=orthogonalEdgeStyle;rounded=0;orthogonalLoop=1;jettySize=auto;html=1;startArrow=none;startFill=0;endArrow=open;endFill=0;strokeColor=#808080;strokeWidth=2;exitX=1;exitY=0.5;exitDx=0;exitDy=0;exitPerimeter=0;entryX=0;entryY=0.5;entryDx=0;entryDy=0;entryPerimeter=0;" edge="1" parent="UEzPUAAOIrF-is8g5C7q-154" source="dOL3RdpPMTuehhcjLxyu-10" target="dOL3RdpPMTuehhcjLxyu-9">
          <mxGeometry relative="1" as="geometry">
            <Array as="points">
              <mxPoint x="636" y="304" />
            </Array>
            <mxPoint x="636.5" y="246.0000000000001" as="sourcePoint" />
            <mxPoint x="860" y="650.9999999999998" as="targetPoint" />
          </mxGeometry>
        </mxCell>
        <mxCell id="dOL3RdpPMTuehhcjLxyu-15" value="" style="edgeStyle=orthogonalEdgeStyle;rounded=0;orthogonalLoop=1;jettySize=auto;html=1;" edge="1" parent="UEzPUAAOIrF-is8g5C7q-154" source="dOL3RdpPMTuehhcjLxyu-13" target="dOL3RdpPMTuehhcjLxyu-10">
          <mxGeometry relative="1" as="geometry">
            <mxPoint x="613" y="186" as="targetPoint" />
            <Array as="points" />
          </mxGeometry>
        </mxCell>
        <mxCell id="dOL3RdpPMTuehhcjLxyu-13" value="Event Bridg&lt;span style=&quot;background-color: initial;&quot;&gt;e&lt;/span&gt;&lt;div&gt;&lt;span style=&quot;background-color: initial;&quot;&gt;Schedule&lt;/span&gt;&lt;/div&gt;" style="outlineConnect=0;dashed=0;verticalLabelPosition=bottom;verticalAlign=top;align=center;html=1;shape=mxgraph.aws3.event_time_based;fillColor=#759C3E;gradientColor=none;" vertex="1" parent="UEzPUAAOIrF-is8g5C7q-154">
          <mxGeometry x="567" y="36" width="63" height="82.5" as="geometry" />
        </mxCell>
        <mxCell id="dOL3RdpPMTuehhcjLxyu-16" style="edgeStyle=orthogonalEdgeStyle;rounded=0;orthogonalLoop=1;jettySize=auto;html=1;startArrow=none;startFill=0;endArrow=open;endFill=0;strokeColor=#808080;strokeWidth=2;" edge="1" parent="UEzPUAAOIrF-is8g5C7q-154" source="dOL3RdpPMTuehhcjLxyu-6" target="dOL3RdpPMTuehhcjLxyu-10">
          <mxGeometry relative="1" as="geometry">
            <Array as="points" />
            <mxPoint x="480" y="303.38" as="sourcePoint" />
            <mxPoint x="547" y="303.38" as="targetPoint" />
          </mxGeometry>
        </mxCell>
        <mxCell id="dOL3RdpPMTuehhcjLxyu-17" style="edgeStyle=orthogonalEdgeStyle;rounded=0;orthogonalLoop=1;jettySize=auto;html=1;startArrow=none;startFill=0;endArrow=open;endFill=0;strokeColor=#808080;strokeWidth=2;" edge="1" parent="UEzPUAAOIrF-is8g5C7q-154" source="UEzPUAAOIrF-is8g5C7q-158">
          <mxGeometry relative="1" as="geometry">
            <Array as="points" />
            <mxPoint x="170" y="300.38" as="sourcePoint" />
            <mxPoint x="237" y="300.38" as="targetPoint" />
          </mxGeometry>
        </mxCell>
        <mxCell id="dOL3RdpPMTuehhcjLxyu-20" value="Lak Formation" style="sketch=0;points=[[0,0,0],[0.25,0,0],[0.5,0,0],[0.75,0,0],[1,0,0],[0,1,0],[0.25,1,0],[0.5,1,0],[0.75,1,0],[1,1,0],[0,0.25,0],[0,0.5,0],[0,0.75,0],[1,0.25,0],[1,0.5,0],[1,0.75,0]];outlineConnect=0;fontColor=#232F3E;fillColor=#8C4FFF;strokeColor=#ffffff;dashed=0;verticalLabelPosition=bottom;verticalAlign=top;align=center;html=1;fontSize=12;fontStyle=0;aspect=fixed;shape=mxgraph.aws4.resourceIcon;resIcon=mxgraph.aws4.lake_formation;" vertex="1" parent="UEzPUAAOIrF-is8g5C7q-154">
          <mxGeometry x="382" y="70" width="78" height="78" as="geometry" />
        </mxCell>
        <mxCell id="dOL3RdpPMTuehhcjLxyu-21" value="Cloud Watch" style="outlineConnect=0;dashed=0;verticalLabelPosition=bottom;verticalAlign=top;align=center;html=1;shape=mxgraph.aws3.cloudwatch;fillColor=#759C3E;gradientColor=none;" vertex="1" parent="UEzPUAAOIrF-is8g5C7q-154">
          <mxGeometry x="250" y="55" width="82.5" height="93" as="geometry" />
        </mxCell>
        <mxCell id="dOL3RdpPMTuehhcjLxyu-30" value="" style="edgeStyle=orthogonalEdgeStyle;rounded=0;orthogonalLoop=1;jettySize=auto;html=1;entryX=0.852;entryY=0.235;entryDx=0;entryDy=0;entryPerimeter=0;" edge="1" parent="UEzPUAAOIrF-is8g5C7q-154" source="dOL3RdpPMTuehhcjLxyu-29" target="dOL3RdpPMTuehhcjLxyu-24">
          <mxGeometry relative="1" as="geometry" />
        </mxCell>
        <mxCell id="dOL3RdpPMTuehhcjLxyu-29" value="QuickSight" style="outlineConnect=0;dashed=0;verticalLabelPosition=bottom;verticalAlign=top;align=center;html=1;shape=mxgraph.aws3.quicksight;fillColor=#00B7F4;gradientColor=none;" vertex="1" parent="UEzPUAAOIrF-is8g5C7q-154">
          <mxGeometry x="813.75" y="79" width="60" height="60" as="geometry" />
        </mxCell>
        <mxCell id="dOL3RdpPMTuehhcjLxyu-34" value="Workflow usando shell script para executar SQL através de api psql" style="text;html=1;align=center;verticalAlign=middle;resizable=0;points=[];autosize=1;strokeColor=none;fillColor=none;" vertex="1" parent="UEzPUAAOIrF-is8g5C7q-154">
          <mxGeometry x="520" y="370" width="380" height="30" as="geometry" />
        </mxCell>
        <mxCell id="dOL3RdpPMTuehhcjLxyu-35" value="Aws Lambda" style="outlineConnect=0;dashed=0;verticalLabelPosition=bottom;verticalAlign=top;align=center;html=1;shape=mxgraph.aws3.lambda_function;fillColor=#F58534;gradientColor=none;" vertex="1" parent="UEzPUAAOIrF-is8g5C7q-154">
          <mxGeometry x="260" y="434" width="69" height="72" as="geometry" />
        </mxCell>
        <mxCell id="dOL3RdpPMTuehhcjLxyu-36" value="Athena" style="sketch=0;points=[[0,0,0],[0.25,0,0],[0.5,0,0],[0.75,0,0],[1,0,0],[0,1,0],[0.25,1,0],[0.5,1,0],[0.75,1,0],[1,1,0],[0,0.25,0],[0,0.5,0],[0,0.75,0],[1,0.25,0],[1,0.5,0],[1,0.75,0]];outlineConnect=0;fontColor=#232F3E;fillColor=#8C4FFF;strokeColor=#ffffff;dashed=0;verticalLabelPosition=bottom;verticalAlign=top;align=center;html=1;fontSize=12;fontStyle=0;aspect=fixed;shape=mxgraph.aws4.resourceIcon;resIcon=mxgraph.aws4.athena;" vertex="1" parent="UEzPUAAOIrF-is8g5C7q-154">
          <mxGeometry x="410" y="430" width="78" height="78" as="geometry" />
        </mxCell>
        <mxCell id="dOL3RdpPMTuehhcjLxyu-37" style="edgeStyle=orthogonalEdgeStyle;rounded=0;orthogonalLoop=1;jettySize=auto;html=1;startArrow=none;startFill=0;endArrow=open;endFill=0;strokeColor=#808080;strokeWidth=2;entryX=0;entryY=0.5;entryDx=0;entryDy=0;entryPerimeter=0;exitX=1;exitY=0.5;exitDx=0;exitDy=0;exitPerimeter=0;" edge="1" parent="UEzPUAAOIrF-is8g5C7q-154" source="dOL3RdpPMTuehhcjLxyu-35" target="dOL3RdpPMTuehhcjLxyu-36">
          <mxGeometry relative="1" as="geometry">
            <Array as="points" />
            <mxPoint x="329" y="476" as="sourcePoint" />
            <mxPoint x="402" y="476.38" as="targetPoint" />
          </mxGeometry>
        </mxCell>
        <mxCell id="dOL3RdpPMTuehhcjLxyu-39" value="Para execução das tarefas" style="text;html=1;align=center;verticalAlign=middle;resizable=0;points=[];autosize=1;strokeColor=none;fillColor=none;" vertex="1" parent="UEzPUAAOIrF-is8g5C7q-154">
          <mxGeometry x="212" y="540" width="170" height="30" as="geometry" />
        </mxCell>
        <mxCell id="dOL3RdpPMTuehhcjLxyu-40" value="Amazon S3&lt;br&gt;artifactory" style="outlineConnect=0;fontColor=#232F3E;gradientColor=none;fillColor=#277116;strokeColor=none;dashed=0;verticalLabelPosition=bottom;verticalAlign=top;align=center;html=1;fontSize=12;fontStyle=0;aspect=fixed;pointerEvents=1;shape=mxgraph.aws4.bucket_with_objects;labelBackgroundColor=#ffffff;" vertex="1" parent="UEzPUAAOIrF-is8g5C7q-154">
          <mxGeometry x="99" y="430" width="75" height="78" as="geometry" />
        </mxCell>
        <mxCell id="dOL3RdpPMTuehhcjLxyu-43" style="edgeStyle=orthogonalEdgeStyle;rounded=0;orthogonalLoop=1;jettySize=auto;html=1;startArrow=none;startFill=0;endArrow=open;endFill=0;strokeColor=#808080;strokeWidth=2;" edge="1" parent="UEzPUAAOIrF-is8g5C7q-154" source="dOL3RdpPMTuehhcjLxyu-40">
          <mxGeometry relative="1" as="geometry">
            <Array as="points" />
            <mxPoint x="190" y="478.38" as="sourcePoint" />
            <mxPoint x="263" y="469" as="targetPoint" />
          </mxGeometry>
        </mxCell>
        <mxCell id="UEzPUAAOIrF-is8g5C7q-155" value="" style="rounded=0;whiteSpace=wrap;html=1;dashed=1;labelBackgroundColor=#ffffff;fillColor=none;gradientColor=none;container=1;pointerEvents=0;collapsible=0;recursiveResize=0;" parent="1" vertex="1">
          <mxGeometry x="20" y="-700" width="166.5" height="600" as="geometry" />
        </mxCell>
        <mxCell id="dOL3RdpPMTuehhcjLxyu-25" value="" style="sketch=0;pointerEvents=1;shadow=0;dashed=0;html=1;strokeColor=none;fillColor=#505050;labelPosition=center;verticalLabelPosition=bottom;verticalAlign=top;outlineConnect=0;align=center;shape=mxgraph.office.servers.mainframe_host;" vertex="1" parent="UEzPUAAOIrF-is8g5C7q-155">
          <mxGeometry x="39" y="54.25" width="80" height="93.75" as="geometry" />
        </mxCell>
        <mxCell id="dOL3RdpPMTuehhcjLxyu-27" value="On-premisses" style="text;html=1;align=center;verticalAlign=middle;resizable=0;points=[];autosize=1;strokeColor=none;fillColor=none;" vertex="1" parent="UEzPUAAOIrF-is8g5C7q-155">
          <mxGeometry x="29" y="-2" width="100" height="30" as="geometry" />
        </mxCell>
        <mxCell id="dOL3RdpPMTuehhcjLxyu-28" value="" style="edgeStyle=orthogonalEdgeStyle;rounded=0;orthogonalLoop=1;jettySize=auto;html=1;exitX=0.512;exitY=1.021;exitDx=0;exitDy=0;exitPerimeter=0;" edge="1" parent="UEzPUAAOIrF-is8g5C7q-155" target="UEzPUAAOIrF-is8g5C7q-157">
          <mxGeometry relative="1" as="geometry">
            <mxPoint x="79.96000000000004" y="169.99874999999997" as="sourcePoint" />
            <mxPoint x="46.5" y="369.02999999999986" as="targetPoint" />
            <Array as="points">
              <mxPoint x="20" y="171" />
              <mxPoint x="20" y="350" />
            </Array>
          </mxGeometry>
        </mxCell>
        <mxCell id="UEzPUAAOIrF-is8g5C7q-156" value="File1" style="outlineConnect=0;fontColor=#232F3E;gradientColor=none;fillColor=#BC1356;strokeColor=none;dashed=0;verticalLabelPosition=bottom;verticalAlign=top;align=center;html=1;fontSize=12;fontStyle=0;aspect=fixed;pointerEvents=1;shape=mxgraph.aws4.template;labelBackgroundColor=#ffffff;" parent="1" vertex="1">
          <mxGeometry x="66.5" y="-498" width="65" height="78" as="geometry" />
        </mxCell>
        <mxCell id="UEzPUAAOIrF-is8g5C7q-157" value="File2" style="outlineConnect=0;fontColor=#232F3E;gradientColor=none;fillColor=#BC1356;strokeColor=none;dashed=0;verticalLabelPosition=bottom;verticalAlign=top;align=center;html=1;fontSize=12;fontStyle=0;aspect=fixed;pointerEvents=1;shape=mxgraph.aws4.template;labelBackgroundColor=#ffffff;" parent="1" vertex="1">
          <mxGeometry x="66.5" y="-390" width="65" height="78" as="geometry" />
        </mxCell>
        <mxCell id="UEzPUAAOIrF-is8g5C7q-158" value="Amazon S3&lt;br&gt;raw" style="outlineConnect=0;fontColor=#232F3E;gradientColor=none;fillColor=#277116;strokeColor=none;dashed=0;verticalLabelPosition=bottom;verticalAlign=top;align=center;html=1;fontSize=12;fontStyle=0;aspect=fixed;pointerEvents=1;shape=mxgraph.aws4.bucket_with_objects;labelBackgroundColor=#ffffff;" parent="1" vertex="1">
          <mxGeometry x="289" y="-439" width="75" height="78" as="geometry" />
        </mxCell>
        <mxCell id="dOL3RdpPMTuehhcjLxyu-26" value="" style="edgeStyle=orthogonalEdgeStyle;rounded=0;orthogonalLoop=1;jettySize=auto;html=1;" edge="1" parent="1" source="dOL3RdpPMTuehhcjLxyu-25" target="UEzPUAAOIrF-is8g5C7q-156">
          <mxGeometry relative="1" as="geometry" />
        </mxCell>
      </root>
    </mxGraphModel>
  </diagram>
</mxfile>
